<?xml version="1.0" encoding="UTF-8" standalone="no"?>
<svg
   width="90"
   height="90"
   viewBox="0 0 90 90"
   fill="none"
   version="1.1"
   id="svg8"
   sodipodi:docname="opensea.svg"
   inkscape:version="1.1.2 (0a00cf5339, 2022-02-04)"
   xmlns:inkscape="http://www.inkscape.org/namespaces/inkscape"
   xmlns:sodipodi="http://sodipodi.sourceforge.net/DTD/sodipodi-0.dtd"
   xmlns="http://www.w3.org/2000/svg"
   xmlns:svg="http://www.w3.org/2000/svg">
  <defs
     id="defs12" />
  <sodipodi:namedview
     id="namedview10"
     pagecolor="#505050"
     bordercolor="#eeeeee"
     borderopacity="1"
     inkscape:pageshadow="0"
     inkscape:pageopacity="0"
     inkscape:pagecheckerboard="0"
     showgrid="false"
     inkscape:zoom="5.8532728"
     inkscape:cx="53.901469"
     inkscape:cy="47.751063"
     inkscape:window-width="1920"
     inkscape:window-height="1016"
     inkscape:window-x="0"
     inkscape:window-y="27"
     inkscape:window-maximized="1"
     inkscape:current-layer="svg8" />
  <path
     id="path4"
     style="fill:#ffffff;stroke-width:1.60607"
     d="m 44.572995,3.0706237 c -2.262426,0 -4.093406,1.8442838 -4.093406,4.1188036 v 4.7134657 l -0.424431,-0.118932 -1.15068,-0.325499 -1.050074,-0.291071 c -0.0075,0 -0.01663,-0.0062 -0.03144,-0.0062 h -0.02202 L 29.837366,9.0109656 C 29.48758,8.9146578 29.190244,9.2933179 29.368922,9.6118863 l 1.273292,2.3410837 c 0.119118,0.296293 0.291415,0.592201 0.440152,0.910768 0.208455,0.415035 0.41516,0.852326 0.61621,1.289475 0.178516,0.385229 0.357615,0.765055 0.565909,1.17993 0.409346,0.911316 0.856177,1.873073 1.295302,2.932614 0.297632,0.703798 0.594701,1.407333 0.85515,2.140777 0.714384,1.844743 1.392658,3.814443 1.980681,5.83706 0.208294,0.644506 0.355792,1.261535 0.534468,1.906042 l 0.08174,0.353667 c 0.238234,0.940959 0.44845,1.875849 0.597347,2.816809 0.119118,0.644507 0.229685,1.258613 0.289244,1.881004 0.08933,0.703798 0.177881,1.408813 0.207498,2.112609 0.05956,0.644668 0.09117,1.317873 0.09117,1.962379 0,1.644757 -0.150099,3.229453 -0.499885,4.725984 -0.119118,0.437149 -0.237809,0.904419 -0.386705,1.34894 -0.148736,0.525925 -0.358731,1.05203 -0.559621,1.614971 -0.119118,0.318728 -0.237807,0.645409 -0.386704,0.963976 -0.736757,1.763179 -1.651678,3.519556 -2.596892,5.164153 -1.384175,2.437491 -2.775885,4.578044 -3.750716,5.955993 -0.133926,0.199986 -0.25927,0.377373 -0.370983,0.547713 -0.305036,0.429778 0.006,1.03909 0.534468,1.03909 h 10.299535 v 8.096769 h -10.419 c -2.798134,0 -5.386599,-1.57689 -6.636849,-4.103156 -0.647419,-1.266898 -0.900298,-2.661704 -0.751402,-4.02491 0.03719,-0.407505 -0.268626,-0.791839 -0.685377,-0.791839 H 0.9414494 c -0.35719143,0 -0.64764967,0.289154 -0.64764967,0.644738 v 0.428781 c 0,13.365257 10.84311327,24.196412 24.22402727,24.196412 h 37.752385 c 9.049707,0 13.099519,-10.497849 18.398314,-17.839807 2.076346,-2.87448 7.070953,-5.155201 8.529498,-5.777594 0.238235,-0.103678 0.402425,-0.340531 0.402425,-0.607179 V 54.2114 c 0,-0.429778 -0.417509,-0.738279 -0.826855,-0.619698 l -22.03585,6.340955 c -0.119117,0.02965 -0.223189,0.09572 -0.304961,0.184658 -2.418729,2.65959 -4.467236,4.421763 -4.935979,4.829267 -1.369368,1.155688 -3.064976,1.787111 -4.851094,1.787111 h -7.979309 v -8.096769 h 6.341318 c 0.163707,0 0.321035,-0.05907 0.440151,-0.162749 l 0.817424,-0.75115 c 0.349787,-0.318567 0.76534,-0.702269 1.263862,-1.198709 0.297793,-0.296293 0.626318,-0.614652 0.946325,-0.970236 0.327412,-0.318567 0.648532,-0.675228 0.946323,-1.023441 0.498525,-0.533457 0.97268,-1.089223 1.471363,-1.674438 0.357192,-0.38523 0.686053,-0.821027 1.006061,-1.258176 0.357352,-0.414875 0.706943,-0.88251 1.034354,-1.327031 0.238074,-0.348213 0.506672,-0.705048 0.767121,-1.082907 0.238074,-0.355585 0.475055,-0.730454 0.675946,-1.086038 0.625205,-0.963074 1.153734,-1.993641 1.600264,-3.023378 0.230669,-0.496439 0.40924,-1.023525 0.587915,-1.527336 0.178516,-0.526086 0.3286,-1.023161 0.440151,-1.549247 0.268015,-1.237253 0.326618,-2.46656 0.2075,-3.696283 -0.02977,-0.38523 -0.05843,-0.76159 -0.147765,-1.117335 V 37.129 c -0.02977,-0.251904 -0.09098,-0.532559 -0.172916,-0.791835 -0.267855,-1.200238 -0.682114,-2.402517 -1.210416,-3.58048 -0.178677,-0.43715 -0.387026,-0.881971 -0.587915,-1.289475 -0.47631,-0.881509 -0.974882,-1.76135 -1.540529,-2.613375 -0.20089,-0.318567 -0.439357,-0.645407 -0.647651,-0.963976 -0.439125,-0.674312 -0.946029,-1.318236 -1.414772,-1.940468 -0.35735,-0.466795 -0.766692,-0.934242 -1.153824,-1.408406 -0.38697,-0.466797 -0.766853,-0.911952 -1.153825,-1.348941 -1.384176,-1.55582 -2.836293,-2.962546 -4.131131,-4.162622 -0.238235,-0.237163 -0.499269,-0.474411 -0.767121,-0.704202 -1.004772,-0.911156 -1.918385,-1.704153 -2.68492,-2.319175 -0.387134,-0.296293 -0.708428,-0.585971 -1.00606,-0.823135 -0.379569,-0.281391 -0.674991,-0.511047 -0.883448,-0.666645 -0.05956,-0.04439 -0.127959,-0.07474 -0.194922,-0.09703 L 48.666401,14.18451 V 7.1894273 c 0,-1.1409448 -0.461083,-2.1623593 -1.197841,-2.9107048 C 46.731802,3.5303771 45.704289,3.0706237 44.572995,3.0706237 Z M 25.354114,18.628812 c -0.22234,-0.01575 -0.453352,0.08245 -0.59106,0.29733 L 5.9183005,48.271059 5.6070514,48.759306 c -0.2754189,0.422407 0.029131,0.985883 0.550189,0.985883 H 25.536462 c 0.21586,0 0.418657,-0.103968 0.537614,-0.28168 0.253043,-0.385229 0.488542,-0.784948 0.704242,-1.19245 1.674566,-2.800448 3.163427,-5.831256 3.706699,-8.0686 1.272626,-5.437924 -1.442225,-14.171392 -4.590146,-21.194943 -0.104227,-0.233316 -0.318418,-0.36296 -0.540757,-0.378704 z" />
</svg>
