<?xml version="1.0" standalone="no"?>
<!DOCTYPE svg PUBLIC "-//W3C//DTD SVG 20010904//EN"
 "http://www.w3.org/TR/2001/REC-SVG-20010904/DTD/svg10.dtd">
<svg version="1.0" xmlns="http://www.w3.org/2000/svg"
 width="246.000000pt" height="246.000000pt" viewBox="0 0 246.000000 246.000000"
 preserveAspectRatio="xMidYMid meet">
<metadata>
Created by potrace 1.14, written by Peter Selinger 2001-2017
</metadata>
<g transform="translate(0.000000,246.000000) scale(0.100000,-0.100000)"
fill="#000000" stroke="none">
<path d="M1159 2396 c-2 -2 -26 -7 -54 -11 -125 -16 -330 -88 -415 -145 -14
-9 -52 -35 -85 -56 -80 -52 -228 -202 -290 -293 -48 -70 -52 -73 -92 -75 -24
-1 -51 -10 -62 -21 -26 -22 -37 -79 -23 -111 9 -19 8 -30 -9 -58 -20 -34 -20
-67 0 -103 7 -14 6 -44 -5 -104 -40 -224 -4 -484 98 -697 224 -471 747 -743
1258 -655 91 15 241 63 311 99 38 19 56 22 98 17 38 -4 57 -2 76 11 14 9 25
13 25 8 0 -20 51 -32 90 -22 75 20 99 110 42 161 l-31 27 55 59 c63 67 148
190 193 281 35 69 86 217 95 272 3 19 8 46 11 60 13 58 15 239 5 328 -16 128
-51 246 -108 364 l-47 97 25 3 c50 6 58 78 11 93 -23 7 -59 -13 -63 -34 -2 -7
-25 14 -53 50 -168 215 -421 378 -665 428 -30 6 -66 14 -80 17 -30 7 -305 16
-311 10z"/>
<path d="M17 1692 c-20 -22 -21 -41 -3 -64 18 -25 52 -22 70 4 20 29 20 34 -4
58 -25 25 -42 25 -63 2z"/>
</g>
</svg>
